0, 0, Header, 1, 2, 384
1, 0, Start_track
1, 0, Time_signature, 4, 2, 24, 8
1, 0, Tempo, 545454
1, 0, End_track
2, 0, Start_track
2, 0, Title_t, "Electric Piano"
2, 0, Program_c, 0, 0
2, 0, Note_on_c, 0, 49, 50
2, 384, Note_off_c, 0, 49, 0
2, 384, Note_on_c, 0, 49, 50
2, 768, Note_off_c, 0, 49, 0
2, 768, Note_on_c, 0, 56, 50
2, 1152, Note_off_c, 0, 56, 0
2, 1152, Note_on_c, 0, 56, 50
2, 1536, Note_off_c, 0, 56, 0
2, 1536, Note_on_c, 0, 58, 50
2, 1920, Note_off_c, 0, 58, 0
2, 1920, Note_on_c, 0, 58, 50
2, 2304, Note_off_c, 0, 58, 0
2, 2304, Note_on_c, 0, 56, 50
2, 2688, Note_off_c, 0, 56, 0
2, 2688, Note_on_c, 0, 56, 50
2, 3072, Note_off_c, 0, 56, 0
2, 3072, Note_on_c, 0, 54, 50
2, 3456, Note_off_c, 0, 54, 0
2, 3456, Note_on_c, 0, 54, 50
2, 3840, Note_off_c, 0, 54, 0
2, 3840, Note_on_c, 0, 53, 50
2, 4224, Note_off_c, 0, 53, 0
2, 4224, Note_on_c, 0, 53, 50
2, 4608, Note_off_c, 0, 53, 0
2, 4608, Note_on_c, 0, 51, 50
2, 4992, Note_off_c, 0, 51, 0
2, 4992, Note_on_c, 0, 51, 50
2, 5376, Note_off_c, 0, 51, 0
2, 5376, Note_on_c, 0, 49, 50
2, 5760, Note_off_c, 0, 49, 0
2, 6144, Note_on_c, 0, 56, 50
2, 6528, Note_off_c, 0, 56, 0
2, 6528, Note_on_c, 0, 56, 50
2, 6912, Note_off_c, 0, 56, 0
2, 6912, Note_on_c, 0, 54, 50
2, 7296, Note_off_c, 0, 54, 0
2, 7296, Note_on_c, 0, 54, 50
2, 7680, Note_off_c, 0, 54, 0
2, 7680, Note_on_c, 0, 53, 50
2, 8064, Note_off_c, 0, 53, 0
2, 8064, Note_on_c, 0, 53, 50
2, 8448, Note_off_c, 0, 53, 0
2, 8448, Note_on_c, 0, 51, 50
2, 8832, Note_off_c, 0, 51, 0
2, 9216, Note_on_c, 0, 56, 50
2, 9600, Note_off_c, 0, 56, 0
2, 9600, Note_on_c, 0, 56, 50
2, 9984, Note_off_c, 0, 56, 0
2, 9984, Note_on_c, 0, 54, 50
2, 10368, Note_off_c, 0, 54, 0
2, 10368, Note_on_c, 0, 54, 50
2, 10752, Note_off_c, 0, 54, 0
2, 10752, Note_on_c, 0, 53, 50
2, 11136, Note_off_c, 0, 53, 0
2, 11136, Note_on_c, 0, 53, 50
2, 11520, Note_off_c, 0, 53, 0
2, 11520, Note_on_c, 0, 51, 50
2, 11904, Note_off_c, 0, 51, 0
2, 12288, Note_on_c, 0, 49, 50
2, 12672, Note_off_c, 0, 49, 0
2, 12672, Note_on_c, 0, 49, 50
2, 13056, Note_off_c, 0, 49, 0
2, 13056, Note_on_c, 0, 56, 50
2, 13440, Note_off_c, 0, 56, 0
2, 13440, Note_on_c, 0, 56, 50
2, 13824, Note_off_c, 0, 56, 0
2, 13824, Note_on_c, 0, 58, 50
2, 14208, Note_off_c, 0, 58, 0
2, 14208, Note_on_c, 0, 58, 50
2, 14592, Note_off_c, 0, 58, 0
2, 14592, Note_on_c, 0, 56, 50
2, 14976, Note_off_c, 0, 56, 0
2, 15360, Note_on_c, 0, 54, 50
2, 15744, Note_off_c, 0, 54, 0
2, 15744, Note_on_c, 0, 54, 50
2, 16128, Note_off_c, 0, 54, 0
2, 16128, Note_on_c, 0, 53, 50
2, 16512, Note_off_c, 0, 53, 0
2, 16512, Note_on_c, 0, 53, 50
2, 16896, Note_off_c, 0, 53, 0
2, 16896, Note_on_c, 0, 51, 50
2, 17280, Note_off_c, 0, 51, 0
2, 17280, Note_on_c, 0, 51, 50
2, 17664, Note_off_c, 0, 51, 0
2, 17664, Note_on_c, 0, 49, 50
2, 18048, Note_off_c, 0, 49, 0
2, 18048, End_track
0, 0, End_of_file
